<svg width="134" height="24" viewBox="0 0 134 24" fill="none" xmlns="http://www.w3.org/2000/svg">
<g clip-path="url(#clip0_2004_714)">
<path fill-rule="evenodd" clip-rule="evenodd" d="M0 8.37209V17.3023H2.80335C3.09785 17.3023 3.38948 17.3601 3.6616 17.4723C3.93365 17.5845 4.18093 17.7489 4.38913 17.9562C4.59739 18.1635 4.76261 18.4097 4.87534 18.6805C4.98799 18.9514 5.04603 19.2417 5.04603 19.5349V22.3256H11.7741L20.1841 13.9535V5.02326H17.3808C17.0862 5.02326 16.7946 4.96552 16.5225 4.85332C16.2504 4.74112 16.0032 4.57667 15.795 4.36936C15.5867 4.16205 15.4215 3.91592 15.3087 3.64506C15.1961 3.3742 15.1381 3.08389 15.1381 2.7907V0H8.41004L0 8.37209ZM9.53138 16.7442H5.60669V10.6047L10.6527 5.5814H14.5774V11.7209L9.53138 16.7442Z" fill="#0004E8"/>
<path d="M129.272 6.83496C130.689 6.83496 131.827 7.27031 132.688 8.14101C133.563 8.99792 134 10.2003 134 11.7482V18.4858H131.084V12.1421C131.084 11.2438 130.855 10.5596 130.397 10.0898C129.939 9.60601 129.314 9.36417 128.523 9.36417C127.732 9.36417 127.1 9.60601 126.628 10.0898C126.17 10.5596 125.941 11.2438 125.941 12.1421V18.4858H123.025V12.1421C123.025 11.2438 122.796 10.5596 122.338 10.0898C121.88 9.60601 121.255 9.36417 120.464 9.36417C119.659 9.36417 119.02 9.60601 118.548 10.0898C118.09 10.5596 117.861 11.2438 117.861 12.1421V18.4858H114.945V7.00078H117.861V8.38977C118.236 7.90609 118.714 7.52599 119.298 7.2496C119.895 6.97316 120.547 6.83496 121.255 6.83496C122.158 6.83496 122.963 7.02847 123.671 7.41543C124.379 7.7886 124.927 8.32759 125.316 9.03247C125.691 8.36906 126.232 7.83693 126.94 7.43613C127.662 7.03533 128.44 6.83496 129.272 6.83496Z" fill="#000150"/>
<path d="M112.797 7.00073V18.4858H109.861V17.0346C109.486 17.5322 108.993 17.926 108.382 18.2163C107.785 18.4927 107.133 18.6309 106.425 18.6309C105.522 18.6309 104.724 18.4443 104.03 18.0711C103.336 17.6842 102.788 17.1244 102.385 16.3919C101.996 15.6456 101.802 14.7611 101.802 13.7384V7.00073H104.717V13.3237C104.717 14.2359 104.946 14.9408 105.404 15.4383C105.863 15.922 106.487 16.1639 107.278 16.1639C108.084 16.1639 108.715 15.922 109.174 15.4383C109.632 14.9408 109.861 14.2359 109.861 13.3237V7.00073H112.797Z" fill="#000150"/>
<path d="M95.7018 18.6724C94.7576 18.6724 93.9104 18.5066 93.1608 18.1749C92.4112 17.8294 91.8141 17.3663 91.3701 16.7859C90.9395 16.2054 90.7034 15.5628 90.6619 14.8579H93.5982C93.6537 15.3002 93.869 15.6664 94.244 15.9566C94.6326 16.2469 95.1114 16.392 95.6805 16.392C96.2361 16.392 96.6667 16.2814 96.9717 16.0603C97.2913 15.8392 97.4511 15.5558 97.4511 15.2104C97.4511 14.8372 97.2565 14.5607 96.868 14.3811C96.4929 14.1876 95.889 13.9803 95.0559 13.7591C94.1953 13.5518 93.4871 13.3376 92.9321 13.1165C92.3905 12.8954 91.9184 12.5567 91.5158 12.1007C91.1267 11.6446 90.9327 11.0296 90.9327 10.2556C90.9327 9.61986 91.1133 9.0394 91.4743 8.51419C91.8489 7.98898 92.3765 7.57439 93.0565 7.27032C93.7512 6.96625 94.5631 6.81421 95.4932 6.81421C96.868 6.81421 97.9646 7.15975 98.7838 7.85079C99.6029 8.52803 100.054 9.44706 100.137 10.6081H97.3468C97.3053 10.1519 97.1107 9.79261 96.7637 9.53C96.4307 9.25361 95.9793 9.11536 95.4102 9.11536C94.8826 9.11536 94.4728 9.21214 94.1812 9.40565C93.9037 9.5991 93.7647 9.86863 93.7647 10.2141C93.7647 10.6011 93.9592 10.8983 94.3478 11.1056C94.7369 11.2991 95.3407 11.4995 96.1599 11.7067C96.9924 11.9141 97.6798 12.1283 98.2214 12.3494C98.763 12.5706 99.2278 12.9161 99.6169 13.386C100.019 13.8421 100.228 14.4502 100.242 15.2104C100.242 15.8737 100.054 16.468 99.6792 16.9932C99.3181 17.5184 98.7905 17.933 98.0964 18.2371C97.4163 18.5273 96.6179 18.6724 95.7018 18.6724Z" fill="#000150"/>
<path d="M80.8172 8.65931C81.1922 8.1341 81.7058 7.69875 82.3584 7.35326C83.0245 6.99393 83.7814 6.81421 84.628 6.81421C85.6137 6.81421 86.5023 7.05611 87.294 7.53985C88.0991 8.02353 88.7304 8.71456 89.1891 9.61294C89.6612 10.4975 89.8966 11.5271 89.8966 12.7019C89.8966 13.8766 89.6612 14.9201 89.1891 15.8322C88.7304 16.7306 88.0991 17.4286 87.294 17.9261C86.5023 18.4236 85.6137 18.6724 84.628 18.6724C83.7814 18.6724 83.0318 18.4996 82.3792 18.1542C81.7406 17.8086 81.2197 17.3733 80.8172 16.8481V23.9589H77.9017V7.0008H80.8172V8.65931ZM86.9189 12.7019C86.9189 12.0108 86.7731 11.4165 86.4816 10.919C86.2041 10.4076 85.829 10.0207 85.3569 9.75806C84.8988 9.49546 84.3993 9.36418 83.8577 9.36418C83.3301 9.36418 82.8305 9.50238 82.3584 9.77877C81.8998 10.0414 81.5253 10.4283 81.2337 10.9397C80.9562 11.4511 80.8172 12.0523 80.8172 12.7433C80.8172 13.4344 80.9562 14.0356 81.2337 14.547C81.5253 15.0583 81.8998 15.4522 82.3584 15.7286C82.8305 15.9912 83.3301 16.1225 83.8577 16.1225C84.3993 16.1225 84.8988 15.9843 85.3569 15.7079C85.829 15.4314 86.2041 15.0376 86.4816 14.5262C86.7731 14.0148 86.9189 13.4067 86.9189 12.7019Z" fill="#000150"/>
<path d="M74.3128 5.63257C73.7992 5.63257 73.3692 5.47363 73.0221 5.15575C72.6886 4.82405 72.522 4.41634 72.522 3.93261C72.522 3.44889 72.6886 3.04809 73.0221 2.73021C73.3692 2.39852 73.7992 2.23267 74.3128 2.23267C74.8269 2.23267 75.2503 2.39852 75.5833 2.73021C75.9303 3.04809 76.1042 3.44889 76.1042 3.93261C76.1042 4.41634 75.9303 4.82405 75.5833 5.15575C75.2503 5.47363 74.8269 5.63257 74.3128 5.63257ZM75.7498 7.0008V18.4859H72.8343V7.0008H75.7498Z" fill="#000150"/>
<path d="M65.406 18.6724C64.2953 18.6724 63.2962 18.4305 62.4076 17.9469C61.5189 17.4493 60.8181 16.7513 60.3039 15.853C59.8044 14.9547 59.5543 13.9181 59.5543 12.7433C59.5543 11.5686 59.8111 10.532 60.3247 9.63365C60.8523 8.73532 61.5677 8.04429 62.4698 7.56055C63.3725 7.06303 64.3789 6.81421 65.4896 6.81421C66.6003 6.81421 67.6067 7.06303 68.5093 7.56055C69.4115 8.04429 70.1196 8.73532 70.6332 9.63365C71.1607 10.532 71.4248 11.5686 71.4248 12.7433C71.4248 13.9181 71.154 14.9547 70.6124 15.853C70.0848 16.7513 69.3632 17.4493 68.4465 17.9469C67.5444 18.4305 66.5307 18.6724 65.406 18.6724ZM65.406 16.1432C65.9336 16.1432 66.4264 16.0188 66.8851 15.7701C67.3572 15.5075 67.7317 15.1205 68.0092 14.6091C68.2873 14.0978 68.4258 13.4758 68.4258 12.7433C68.4258 11.6515 68.1342 10.8153 67.5511 10.2349C66.9821 9.64057 66.2807 9.34342 65.4481 9.34342C64.6149 9.34342 63.9141 9.64057 63.3444 10.2349C62.7894 10.8153 62.5119 11.6515 62.5119 12.7433C62.5119 13.8352 62.7821 14.6782 63.3237 15.2725C63.8793 15.853 64.5734 16.1432 65.406 16.1432Z" fill="#000150"/>
<path d="M52.8551 18.6724C51.7444 18.6724 50.7449 18.4305 49.8563 17.9469C48.9678 17.4493 48.2667 16.7513 47.753 15.853C47.2532 14.9547 47.0033 13.9181 47.0033 12.7433C47.0033 11.5686 47.2601 10.532 47.7738 9.63365C48.3014 8.73532 49.0164 8.04429 49.9188 7.56055C50.8212 7.06303 51.8277 6.81421 52.9384 6.81421C54.0491 6.81421 55.0556 7.06303 55.9581 7.56055C56.8603 8.04429 57.5684 8.73532 58.082 9.63365C58.6096 10.532 58.8737 11.5686 58.8737 12.7433C58.8737 13.9181 58.6029 14.9547 58.0613 15.853C57.5337 16.7513 56.8121 17.4493 55.8956 17.9469C54.9932 18.4305 53.9797 18.6724 52.8551 18.6724ZM52.8551 16.1432C53.3827 16.1432 53.8755 16.0188 54.3337 15.7701C54.8057 15.5075 55.1806 15.1205 55.4582 14.6091C55.7359 14.0978 55.8748 13.4758 55.8748 12.7433C55.8748 11.6515 55.5832 10.8153 55.0001 10.2349C54.4309 9.64057 53.7298 9.34342 52.8968 9.34342C52.0638 9.34342 51.3627 9.64057 50.7934 10.2349C50.2381 10.8153 49.9604 11.6515 49.9604 12.7433C49.9604 13.8352 50.2312 14.6782 50.7726 15.2725C51.328 15.853 52.0221 16.1432 52.8551 16.1432Z" fill="#000150"/>
<path d="M40.304 18.6724C39.1933 18.6724 38.1937 18.4305 37.3052 17.9469C36.4166 17.4493 35.7155 16.7513 35.2018 15.853C34.702 14.9547 34.4521 13.9181 34.4521 12.7433C34.4521 11.5686 34.709 10.532 35.2227 9.63365C35.7502 8.73532 36.4652 8.04429 37.3676 7.56055C38.27 7.06303 39.2766 6.81421 40.3873 6.81421C41.4979 6.81421 42.5045 7.06303 43.4069 7.56055C44.3093 8.04429 45.0173 8.73532 45.531 9.63365C46.0586 10.532 46.3224 11.5686 46.3224 12.7433C46.3224 13.9181 46.0517 14.9547 45.5102 15.853C44.9826 16.7513 44.2607 17.4493 43.3444 17.9469C42.442 18.4305 41.4285 18.6724 40.304 18.6724ZM40.304 16.1432C40.8316 16.1432 41.3244 16.0188 41.7826 15.7701C42.2546 15.5075 42.6295 15.1205 42.9071 14.6091C43.1847 14.0978 43.3236 13.4758 43.3236 12.7433C43.3236 11.6515 43.0321 10.8153 42.4489 10.2349C41.8797 9.64057 41.1786 9.34342 40.3456 9.34342C39.5126 9.34342 38.8115 9.64057 38.2423 10.2349C37.6869 10.8153 37.4093 11.6515 37.4093 12.7433C37.4093 13.8352 37.68 14.6782 38.2215 15.2725C38.7768 15.853 39.471 16.1432 40.304 16.1432Z" fill="#000150"/>
<path d="M29.2669 16.1846H34.0567V18.4857H26.3514V4.01538H29.2669V16.1846Z" fill="#000150"/>
<path d="M47.7725 20.0284C48.511 22.2147 50.5867 23.7896 53.0319 23.7896H53.3362C56.4 23.7896 58.8838 21.3171 58.8838 18.2671V17.9551H55.8761V18.2671C55.8761 19.6636 54.739 20.7956 53.3362 20.7956H53.0319C52.317 20.7956 51.671 20.5016 51.2095 20.0284H47.7725Z" fill="#000150"/>
</g>
<defs>
<clipPath id="clip0_2004_714">
<rect width="134" height="24" fill="white"/>
</clipPath>
</defs>
</svg>
